M48
; DRILL file {KiCad 5.1.9+dfsg1-1} date Thu Jan 13 23:23:06 2022
; FORMAT={-:-/ absolute / inch / decimal}
; #@! TF.CreationDate,2022-01-13T23:23:06+01:00
; #@! TF.GenerationSoftware,Kicad,Pcbnew,5.1.9+dfsg1-1
; #@! TF.FileFunction,Plated,1,2,PTH
FMAT,2
INCH
T1C0.0394
%
G90
G05
T1
X4.7956Y-4.3458
X4.8378Y-4.4365
X4.875Y-4.675
X4.8862Y-4.3036
X4.9285Y-4.3942
X4.975Y-4.675
X4.9768Y-4.2613
X5.0191Y-4.3519
X5.0675Y-4.219
X5.075Y-4.675
X5.1097Y-4.3097
X5.1581Y-4.1768
X5.175Y-4.675
X5.2004Y-4.2674
X5.2487Y-4.1345
X5.275Y-4.5
X5.275Y-4.675
X5.291Y-4.2252
X5.3394Y-4.0923
X5.375Y-4.5
X5.375Y-4.675
X5.3816Y-4.1829
X5.43Y-4.05
X5.4723Y-4.1406
X5.475Y-4.5
T0
M30
