%TF.GenerationSoftware,KiCad,Pcbnew,5.1.9+dfsg1-1*%
%TF.CreationDate,2022-01-13T23:22:55+01:00*%
%TF.ProjectId,8051_leds,38303531-5f6c-4656-9473-2e6b69636164,rev?*%
%TF.SameCoordinates,Original*%
%TF.FileFunction,Copper,L2,Bot*%
%TF.FilePolarity,Positive*%
%FSLAX46Y46*%
G04 Gerber Fmt 4.6, Leading zero omitted, Abs format (unit mm)*
G04 Created by KiCad (PCBNEW 5.1.9+dfsg1-1) date 2022-01-13 23:22:55*
%MOMM*%
%LPD*%
G01*
G04 APERTURE LIST*
%TA.AperFunction,EtchedComponent*%
%ADD10C,0.099622*%
%TD*%
%TA.AperFunction,EtchedComponent*%
%ADD11C,0.090098*%
%TD*%
%TA.AperFunction,EtchedComponent*%
%ADD12C,0.070386*%
%TD*%
%TA.AperFunction,ComponentPad*%
%ADD13C,0.100000*%
%TD*%
%TA.AperFunction,ComponentPad*%
%ADD14R,1.700000X1.700000*%
%TD*%
%TA.AperFunction,ComponentPad*%
%ADD15O,1.700000X1.700000*%
%TD*%
%TA.AperFunction,Conductor*%
%ADD16C,0.254000*%
%TD*%
%TA.AperFunction,Conductor*%
%ADD17C,0.100000*%
%TD*%
G04 APERTURE END LIST*
D10*
%TO.C,svg2mod*%
X126862219Y-95116403D02*
X127141506Y-95178575D01*
X126884239Y-94962308D02*
X126862219Y-95116403D01*
X126987864Y-94915387D02*
X126884239Y-94962308D01*
X126906255Y-94825822D02*
X126987864Y-94915387D01*
X126932670Y-94632103D02*
X126906255Y-94825822D01*
X127205639Y-94693740D02*
X126932670Y-94632103D01*
X126444023Y-94790600D02*
X126429218Y-95097058D01*
X126382388Y-94676129D02*
X126444023Y-94790600D01*
X126373523Y-94522034D02*
X126382388Y-94676129D01*
X126778575Y-94596881D02*
X126373523Y-94522034D01*
X127505024Y-93857223D02*
X127689937Y-93883641D01*
X125867211Y-93874833D02*
X127505024Y-93857223D01*
X130771844Y-94323911D02*
X128588093Y-93998110D01*
X129160448Y-94332717D02*
X130771844Y-94323911D01*
D11*
X128132720Y-93174858D02*
X128389021Y-93174857D01*
X127854145Y-93093246D02*
X128132720Y-93174858D01*
X127475284Y-93024949D02*
X127854145Y-93093246D01*
X127308139Y-93286752D02*
X127475284Y-93024949D01*
X127096422Y-93400579D02*
X127308139Y-93286752D01*
X127285853Y-93036332D02*
X127096422Y-93400579D01*
X127330426Y-92763146D02*
X127285853Y-93036332D01*
X127664716Y-92854209D02*
X127330426Y-92763146D01*
X127943290Y-93081863D02*
X127664716Y-92854209D01*
X127898718Y-92922505D02*
X127943290Y-93081863D01*
X127765003Y-92558258D02*
X127898718Y-92922505D01*
X127609000Y-92364751D02*
X127765003Y-92558258D01*
X127274711Y-92421664D02*
X127609000Y-92364751D01*
X127586715Y-92216776D02*
X127274711Y-92421664D01*
X127843003Y-92194007D02*
X127586715Y-92216776D01*
X128132721Y-93038263D02*
X127843003Y-92194007D01*
X128121583Y-93047714D02*
X128132721Y-93038263D01*
X128199583Y-92205392D02*
X128121583Y-93047714D01*
X128366728Y-92387516D02*
X128199583Y-92205392D01*
X128199583Y-93061031D02*
X128366728Y-92387516D01*
X128311013Y-92842825D02*
X128199583Y-93061031D01*
X128567302Y-92501343D02*
X128311013Y-92842825D01*
X128879305Y-92603787D02*
X128567302Y-92501343D01*
X128533872Y-92672084D02*
X128879305Y-92603787D01*
X128322157Y-93083796D02*
X128533872Y-92672084D01*
X128355592Y-93002183D02*
X128322157Y-93083796D01*
X128957313Y-92956652D02*
X128355592Y-93002183D01*
X129258174Y-93218454D02*
X128957313Y-92956652D01*
X129302746Y-93605467D02*
X129258174Y-93218454D01*
X128957313Y-93229837D02*
X129302746Y-93605467D01*
X128623023Y-93127392D02*
X128957313Y-93229837D01*
X128389021Y-93174857D02*
X128623023Y-93127392D01*
D12*
X127692108Y-93873150D02*
X127584643Y-93082574D01*
X127825681Y-94050676D02*
X127692108Y-93873150D01*
X128144854Y-94115940D02*
X127825681Y-94050676D01*
X128418288Y-94098033D02*
X128144854Y-94115940D01*
X128644993Y-93997690D02*
X128418288Y-94098033D01*
X128752142Y-93092800D02*
X128644993Y-93997690D01*
X127812233Y-93006094D02*
X128010090Y-92997639D01*
X127626756Y-93057217D02*
X127812233Y-93006094D01*
X127577308Y-93102537D02*
X127626756Y-93057217D01*
X127711996Y-93178407D02*
X127577308Y-93102537D01*
X127901638Y-93227926D02*
X127711996Y-93178407D01*
X128341340Y-93233161D02*
X127901638Y-93227926D01*
X128704074Y-93188877D02*
X128341340Y-93233161D01*
X128761756Y-93128803D02*
X128704074Y-93188877D01*
X128625691Y-93048191D02*
X128761756Y-93128803D01*
X128349486Y-93002364D02*
X128625691Y-93048191D01*
X128010090Y-92997639D02*
X128349486Y-93002364D01*
D10*
X130754233Y-94367938D02*
X130745425Y-98251139D01*
X128866291Y-97913406D02*
X128510498Y-97797775D01*
X126366841Y-97032817D02*
X126375796Y-97415296D01*
X128154704Y-97584298D02*
X126366841Y-97032817D01*
X128154704Y-97957880D02*
X128154704Y-97584298D01*
X132002090Y-98210886D02*
X129115769Y-98305993D01*
X132002090Y-94789342D02*
X132002090Y-98210886D01*
X131222179Y-94739025D02*
X132002090Y-94789342D01*
X130739618Y-94323532D02*
X131222179Y-94739025D01*
X128832123Y-94739025D02*
X126240814Y-94298753D01*
X128798073Y-97473400D02*
X128832123Y-94739025D01*
X127985527Y-97413818D02*
X128798073Y-97473400D01*
X126857561Y-97061338D02*
X127985527Y-97413818D01*
X126346021Y-96805698D02*
X126857561Y-97061338D01*
X126190493Y-96424639D02*
X126346021Y-96805698D01*
X126127606Y-95556674D02*
X126190493Y-96424639D01*
X126145208Y-94764183D02*
X126127606Y-95556674D01*
X126240814Y-94298753D02*
X126145208Y-94764183D01*
X129121451Y-98298941D02*
X129171769Y-94349070D01*
X125807910Y-97265549D02*
X129121451Y-98298941D01*
X125825700Y-93908797D02*
X125807910Y-97265549D01*
X129171769Y-94349070D02*
X125825700Y-93908797D01*
%TD*%
%TA.AperFunction,ComponentPad*%
D13*
%TO.P,J1,1*%
%TO.N,/LED1*%
G36*
X136792413Y-102458864D02*
G01*
X138333136Y-101740413D01*
X139051587Y-103281136D01*
X137510864Y-103999587D01*
X136792413Y-102458864D01*
G37*
%TD.AperFunction*%
%TO.P,J1,2*%
%TO.N,/SDA*%
%TA.AperFunction,ComponentPad*%
G36*
G01*
X138636224Y-104401660D02*
X138636224Y-104401660D01*
G75*
G02*
X139765812Y-104812796I359226J-770362D01*
G01*
X139765812Y-104812796D01*
G75*
G02*
X139354676Y-105942384I-770362J-359226D01*
G01*
X139354676Y-105942384D01*
G75*
G02*
X138225088Y-105531248I-359226J770362D01*
G01*
X138225088Y-105531248D01*
G75*
G02*
X138636224Y-104401660I770362J359226D01*
G01*
G37*
%TD.AperFunction*%
%TO.P,J1,3*%
%TO.N,/LED2*%
%TA.AperFunction,ComponentPad*%
G36*
G01*
X135260752Y-103173088D02*
X135260752Y-103173088D01*
G75*
G02*
X136390340Y-103584224I359226J-770362D01*
G01*
X136390340Y-103584224D01*
G75*
G02*
X135979204Y-104713812I-770362J-359226D01*
G01*
X135979204Y-104713812D01*
G75*
G02*
X134849616Y-104302676I-359226J770362D01*
G01*
X134849616Y-104302676D01*
G75*
G02*
X135260752Y-103173088I770362J359226D01*
G01*
G37*
%TD.AperFunction*%
%TO.P,J1,4*%
%TO.N,GND*%
%TA.AperFunction,ComponentPad*%
G36*
G01*
X136334203Y-105475110D02*
X136334203Y-105475110D01*
G75*
G02*
X137463791Y-105886246I359226J-770362D01*
G01*
X137463791Y-105886246D01*
G75*
G02*
X137052655Y-107015834I-770362J-359226D01*
G01*
X137052655Y-107015834D01*
G75*
G02*
X135923067Y-106604698I-359226J770362D01*
G01*
X135923067Y-106604698D01*
G75*
G02*
X136334203Y-105475110I770362J359226D01*
G01*
G37*
%TD.AperFunction*%
%TO.P,J1,5*%
%TO.N,/LED3*%
%TA.AperFunction,ComponentPad*%
G36*
G01*
X132958730Y-104246539D02*
X132958730Y-104246539D01*
G75*
G02*
X134088318Y-104657675I359226J-770362D01*
G01*
X134088318Y-104657675D01*
G75*
G02*
X133677182Y-105787263I-770362J-359226D01*
G01*
X133677182Y-105787263D01*
G75*
G02*
X132547594Y-105376127I-359226J770362D01*
G01*
X132547594Y-105376127D01*
G75*
G02*
X132958730Y-104246539I770362J359226D01*
G01*
G37*
%TD.AperFunction*%
%TO.P,J1,6*%
%TO.N,/SCL*%
%TA.AperFunction,ComponentPad*%
G36*
G01*
X134032181Y-106548561D02*
X134032181Y-106548561D01*
G75*
G02*
X135161769Y-106959697I359226J-770362D01*
G01*
X135161769Y-106959697D01*
G75*
G02*
X134750633Y-108089285I-770362J-359226D01*
G01*
X134750633Y-108089285D01*
G75*
G02*
X133621045Y-107678149I-359226J770362D01*
G01*
X133621045Y-107678149D01*
G75*
G02*
X134032181Y-106548561I770362J359226D01*
G01*
G37*
%TD.AperFunction*%
%TO.P,J1,7*%
%TO.N,/LED4*%
%TA.AperFunction,ComponentPad*%
G36*
G01*
X130656709Y-105319989D02*
X130656709Y-105319989D01*
G75*
G02*
X131786297Y-105731125I359226J-770362D01*
G01*
X131786297Y-105731125D01*
G75*
G02*
X131375161Y-106860713I-770362J-359226D01*
G01*
X131375161Y-106860713D01*
G75*
G02*
X130245573Y-106449577I-359226J770362D01*
G01*
X130245573Y-106449577D01*
G75*
G02*
X130656709Y-105319989I770362J359226D01*
G01*
G37*
%TD.AperFunction*%
%TO.P,J1,8*%
%TO.N,/IOA*%
%TA.AperFunction,ComponentPad*%
G36*
G01*
X131730159Y-107622011D02*
X131730159Y-107622011D01*
G75*
G02*
X132859747Y-108033147I359226J-770362D01*
G01*
X132859747Y-108033147D01*
G75*
G02*
X132448611Y-109162735I-770362J-359226D01*
G01*
X132448611Y-109162735D01*
G75*
G02*
X131319023Y-108751599I-359226J770362D01*
G01*
X131319023Y-108751599D01*
G75*
G02*
X131730159Y-107622011I770362J359226D01*
G01*
G37*
%TD.AperFunction*%
%TO.P,J1,9*%
%TO.N,/LED5*%
%TA.AperFunction,ComponentPad*%
G36*
G01*
X128354687Y-106393440D02*
X128354687Y-106393440D01*
G75*
G02*
X129484275Y-106804576I359226J-770362D01*
G01*
X129484275Y-106804576D01*
G75*
G02*
X129073139Y-107934164I-770362J-359226D01*
G01*
X129073139Y-107934164D01*
G75*
G02*
X127943551Y-107523028I-359226J770362D01*
G01*
X127943551Y-107523028D01*
G75*
G02*
X128354687Y-106393440I770362J359226D01*
G01*
G37*
%TD.AperFunction*%
%TO.P,J1,10*%
%TO.N,/IOB*%
%TA.AperFunction,ComponentPad*%
G36*
G01*
X129428137Y-108695461D02*
X129428137Y-108695461D01*
G75*
G02*
X130557725Y-109106597I359226J-770362D01*
G01*
X130557725Y-109106597D01*
G75*
G02*
X130146589Y-110236185I-770362J-359226D01*
G01*
X130146589Y-110236185D01*
G75*
G02*
X129017001Y-109825049I-359226J770362D01*
G01*
X129017001Y-109825049D01*
G75*
G02*
X129428137Y-108695461I770362J359226D01*
G01*
G37*
%TD.AperFunction*%
%TO.P,J1,11*%
%TO.N,/LED6*%
%TA.AperFunction,ComponentPad*%
G36*
G01*
X126052665Y-107466890D02*
X126052665Y-107466890D01*
G75*
G02*
X127182253Y-107878026I359226J-770362D01*
G01*
X127182253Y-107878026D01*
G75*
G02*
X126771117Y-109007614I-770362J-359226D01*
G01*
X126771117Y-109007614D01*
G75*
G02*
X125641529Y-108596478I-359226J770362D01*
G01*
X125641529Y-108596478D01*
G75*
G02*
X126052665Y-107466890I770362J359226D01*
G01*
G37*
%TD.AperFunction*%
%TO.P,J1,12*%
%TO.N,/IOC*%
%TA.AperFunction,ComponentPad*%
G36*
G01*
X127126115Y-109768912D02*
X127126115Y-109768912D01*
G75*
G02*
X128255703Y-110180048I359226J-770362D01*
G01*
X128255703Y-110180048D01*
G75*
G02*
X127844567Y-111309636I-770362J-359226D01*
G01*
X127844567Y-111309636D01*
G75*
G02*
X126714979Y-110898500I-359226J770362D01*
G01*
X126714979Y-110898500D01*
G75*
G02*
X127126115Y-109768912I770362J359226D01*
G01*
G37*
%TD.AperFunction*%
%TO.P,J1,13*%
%TO.N,/LED7*%
%TA.AperFunction,ComponentPad*%
G36*
G01*
X123750643Y-108540340D02*
X123750643Y-108540340D01*
G75*
G02*
X124880231Y-108951476I359226J-770362D01*
G01*
X124880231Y-108951476D01*
G75*
G02*
X124469095Y-110081064I-770362J-359226D01*
G01*
X124469095Y-110081064D01*
G75*
G02*
X123339507Y-109669928I-359226J770362D01*
G01*
X123339507Y-109669928D01*
G75*
G02*
X123750643Y-108540340I770362J359226D01*
G01*
G37*
%TD.AperFunction*%
%TO.P,J1,14*%
%TO.N,/IOD*%
%TA.AperFunction,ComponentPad*%
G36*
G01*
X124824094Y-110842362D02*
X124824094Y-110842362D01*
G75*
G02*
X125953682Y-111253498I359226J-770362D01*
G01*
X125953682Y-111253498D01*
G75*
G02*
X125542546Y-112383086I-770362J-359226D01*
G01*
X125542546Y-112383086D01*
G75*
G02*
X124412958Y-111971950I-359226J770362D01*
G01*
X124412958Y-111971950D01*
G75*
G02*
X124824094Y-110842362I770362J359226D01*
G01*
G37*
%TD.AperFunction*%
%TO.P,J1,15*%
%TO.N,/LED8*%
%TA.AperFunction,ComponentPad*%
G36*
G01*
X121448622Y-109613791D02*
X121448622Y-109613791D01*
G75*
G02*
X122578210Y-110024927I359226J-770362D01*
G01*
X122578210Y-110024927D01*
G75*
G02*
X122167074Y-111154515I-770362J-359226D01*
G01*
X122167074Y-111154515D01*
G75*
G02*
X121037486Y-110743379I-359226J770362D01*
G01*
X121037486Y-110743379D01*
G75*
G02*
X121448622Y-109613791I770362J359226D01*
G01*
G37*
%TD.AperFunction*%
%TO.P,J1,16*%
%TO.N,GND*%
%TA.AperFunction,ComponentPad*%
G36*
G01*
X122522072Y-111915812D02*
X122522072Y-111915812D01*
G75*
G02*
X123651660Y-112326948I359226J-770362D01*
G01*
X123651660Y-112326948D01*
G75*
G02*
X123240524Y-113456536I-770362J-359226D01*
G01*
X123240524Y-113456536D01*
G75*
G02*
X122110936Y-113045400I-359226J770362D01*
G01*
X122110936Y-113045400D01*
G75*
G02*
X122522072Y-111915812I770362J359226D01*
G01*
G37*
%TD.AperFunction*%
%TD*%
D14*
%TO.P,J2,1*%
%TO.N,/SDA*%
X139065000Y-114300000D03*
D15*
%TO.P,J2,2*%
%TO.N,/SCL*%
X136525000Y-114300000D03*
%TO.P,J2,3*%
%TO.N,GND*%
X133985000Y-114300000D03*
%TD*%
D14*
%TO.P,J3,1*%
%TO.N,GND*%
X136525000Y-118745000D03*
D15*
%TO.P,J3,2*%
%TO.N,/IOA*%
X133985000Y-118745000D03*
%TO.P,J3,3*%
%TO.N,/IOB*%
X131445000Y-118745000D03*
%TO.P,J3,4*%
%TO.N,/IOC*%
X128905000Y-118745000D03*
%TO.P,J3,5*%
%TO.N,/IOD*%
X126365000Y-118745000D03*
%TO.P,J3,6*%
%TO.N,GND*%
X123825000Y-118745000D03*
%TD*%
D16*
%TO.N,GND*%
X141340000Y-121340000D02*
X119660000Y-121340000D01*
X119660000Y-119101891D01*
X122383519Y-119101891D01*
X122480843Y-119376252D01*
X122629822Y-119626355D01*
X122824731Y-119842588D01*
X123058080Y-120016641D01*
X123320901Y-120141825D01*
X123468110Y-120186476D01*
X123698000Y-120065155D01*
X123698000Y-118872000D01*
X122504186Y-118872000D01*
X122383519Y-119101891D01*
X119660000Y-119101891D01*
X119660000Y-118388109D01*
X122383519Y-118388109D01*
X122504186Y-118618000D01*
X123698000Y-118618000D01*
X123698000Y-117424845D01*
X123952000Y-117424845D01*
X123952000Y-118618000D01*
X123972000Y-118618000D01*
X123972000Y-118872000D01*
X123952000Y-118872000D01*
X123952000Y-120065155D01*
X124181890Y-120186476D01*
X124329099Y-120141825D01*
X124591920Y-120016641D01*
X124825269Y-119842588D01*
X125020178Y-119626355D01*
X125089805Y-119509466D01*
X125211525Y-119691632D01*
X125418368Y-119898475D01*
X125661589Y-120060990D01*
X125931842Y-120172932D01*
X126218740Y-120230000D01*
X126511260Y-120230000D01*
X126798158Y-120172932D01*
X127068411Y-120060990D01*
X127311632Y-119898475D01*
X127518475Y-119691632D01*
X127635000Y-119517240D01*
X127751525Y-119691632D01*
X127958368Y-119898475D01*
X128201589Y-120060990D01*
X128471842Y-120172932D01*
X128758740Y-120230000D01*
X129051260Y-120230000D01*
X129338158Y-120172932D01*
X129608411Y-120060990D01*
X129851632Y-119898475D01*
X130058475Y-119691632D01*
X130175000Y-119517240D01*
X130291525Y-119691632D01*
X130498368Y-119898475D01*
X130741589Y-120060990D01*
X131011842Y-120172932D01*
X131298740Y-120230000D01*
X131591260Y-120230000D01*
X131878158Y-120172932D01*
X132148411Y-120060990D01*
X132391632Y-119898475D01*
X132598475Y-119691632D01*
X132715000Y-119517240D01*
X132831525Y-119691632D01*
X133038368Y-119898475D01*
X133281589Y-120060990D01*
X133551842Y-120172932D01*
X133838740Y-120230000D01*
X134131260Y-120230000D01*
X134418158Y-120172932D01*
X134688411Y-120060990D01*
X134931632Y-119898475D01*
X135063487Y-119766620D01*
X135085498Y-119839180D01*
X135144463Y-119949494D01*
X135223815Y-120046185D01*
X135320506Y-120125537D01*
X135430820Y-120184502D01*
X135550518Y-120220812D01*
X135675000Y-120233072D01*
X136239250Y-120230000D01*
X136398000Y-120071250D01*
X136398000Y-118872000D01*
X136652000Y-118872000D01*
X136652000Y-120071250D01*
X136810750Y-120230000D01*
X137375000Y-120233072D01*
X137499482Y-120220812D01*
X137619180Y-120184502D01*
X137729494Y-120125537D01*
X137826185Y-120046185D01*
X137905537Y-119949494D01*
X137964502Y-119839180D01*
X138000812Y-119719482D01*
X138013072Y-119595000D01*
X138010000Y-119030750D01*
X137851250Y-118872000D01*
X136652000Y-118872000D01*
X136398000Y-118872000D01*
X136378000Y-118872000D01*
X136378000Y-118618000D01*
X136398000Y-118618000D01*
X136398000Y-117418750D01*
X136652000Y-117418750D01*
X136652000Y-118618000D01*
X137851250Y-118618000D01*
X138010000Y-118459250D01*
X138013072Y-117895000D01*
X138000812Y-117770518D01*
X137964502Y-117650820D01*
X137905537Y-117540506D01*
X137826185Y-117443815D01*
X137729494Y-117364463D01*
X137619180Y-117305498D01*
X137499482Y-117269188D01*
X137375000Y-117256928D01*
X136810750Y-117260000D01*
X136652000Y-117418750D01*
X136398000Y-117418750D01*
X136239250Y-117260000D01*
X135675000Y-117256928D01*
X135550518Y-117269188D01*
X135430820Y-117305498D01*
X135320506Y-117364463D01*
X135223815Y-117443815D01*
X135144463Y-117540506D01*
X135085498Y-117650820D01*
X135063487Y-117723380D01*
X134931632Y-117591525D01*
X134688411Y-117429010D01*
X134418158Y-117317068D01*
X134131260Y-117260000D01*
X133838740Y-117260000D01*
X133551842Y-117317068D01*
X133281589Y-117429010D01*
X133038368Y-117591525D01*
X132831525Y-117798368D01*
X132715000Y-117972760D01*
X132598475Y-117798368D01*
X132391632Y-117591525D01*
X132148411Y-117429010D01*
X131878158Y-117317068D01*
X131591260Y-117260000D01*
X131298740Y-117260000D01*
X131011842Y-117317068D01*
X130741589Y-117429010D01*
X130498368Y-117591525D01*
X130291525Y-117798368D01*
X130175000Y-117972760D01*
X130058475Y-117798368D01*
X129851632Y-117591525D01*
X129608411Y-117429010D01*
X129338158Y-117317068D01*
X129051260Y-117260000D01*
X128758740Y-117260000D01*
X128471842Y-117317068D01*
X128201589Y-117429010D01*
X127958368Y-117591525D01*
X127751525Y-117798368D01*
X127635000Y-117972760D01*
X127518475Y-117798368D01*
X127311632Y-117591525D01*
X127068411Y-117429010D01*
X126798158Y-117317068D01*
X126511260Y-117260000D01*
X126218740Y-117260000D01*
X125931842Y-117317068D01*
X125661589Y-117429010D01*
X125418368Y-117591525D01*
X125211525Y-117798368D01*
X125089805Y-117980534D01*
X125020178Y-117863645D01*
X124825269Y-117647412D01*
X124591920Y-117473359D01*
X124329099Y-117348175D01*
X124181890Y-117303524D01*
X123952000Y-117424845D01*
X123698000Y-117424845D01*
X123468110Y-117303524D01*
X123320901Y-117348175D01*
X123058080Y-117473359D01*
X122824731Y-117647412D01*
X122629822Y-117863645D01*
X122480843Y-118113748D01*
X122383519Y-118388109D01*
X119660000Y-118388109D01*
X119660000Y-114656891D01*
X132543519Y-114656891D01*
X132640843Y-114931252D01*
X132789822Y-115181355D01*
X132984731Y-115397588D01*
X133218080Y-115571641D01*
X133480901Y-115696825D01*
X133628110Y-115741476D01*
X133858000Y-115620155D01*
X133858000Y-114427000D01*
X132664186Y-114427000D01*
X132543519Y-114656891D01*
X119660000Y-114656891D01*
X119660000Y-113618823D01*
X121725701Y-113618823D01*
X121929857Y-113826348D01*
X122170576Y-113990057D01*
X122438607Y-114103658D01*
X122723651Y-114162787D01*
X123014753Y-114165169D01*
X123167040Y-114143423D01*
X123318964Y-113943109D01*
X132543519Y-113943109D01*
X132664186Y-114173000D01*
X133858000Y-114173000D01*
X133858000Y-112979845D01*
X134112000Y-112979845D01*
X134112000Y-114173000D01*
X134132000Y-114173000D01*
X134132000Y-114427000D01*
X134112000Y-114427000D01*
X134112000Y-115620155D01*
X134341890Y-115741476D01*
X134489099Y-115696825D01*
X134751920Y-115571641D01*
X134985269Y-115397588D01*
X135180178Y-115181355D01*
X135249805Y-115064466D01*
X135371525Y-115246632D01*
X135578368Y-115453475D01*
X135821589Y-115615990D01*
X136091842Y-115727932D01*
X136378740Y-115785000D01*
X136671260Y-115785000D01*
X136958158Y-115727932D01*
X137228411Y-115615990D01*
X137471632Y-115453475D01*
X137603487Y-115321620D01*
X137625498Y-115394180D01*
X137684463Y-115504494D01*
X137763815Y-115601185D01*
X137860506Y-115680537D01*
X137970820Y-115739502D01*
X138090518Y-115775812D01*
X138215000Y-115788072D01*
X139915000Y-115788072D01*
X140039482Y-115775812D01*
X140159180Y-115739502D01*
X140269494Y-115680537D01*
X140366185Y-115601185D01*
X140445537Y-115504494D01*
X140504502Y-115394180D01*
X140540812Y-115274482D01*
X140553072Y-115150000D01*
X140553072Y-113450000D01*
X140540812Y-113325518D01*
X140504502Y-113205820D01*
X140445537Y-113095506D01*
X140366185Y-112998815D01*
X140269494Y-112919463D01*
X140159180Y-112860498D01*
X140039482Y-112824188D01*
X139915000Y-112811928D01*
X138215000Y-112811928D01*
X138090518Y-112824188D01*
X137970820Y-112860498D01*
X137860506Y-112919463D01*
X137763815Y-112998815D01*
X137684463Y-113095506D01*
X137625498Y-113205820D01*
X137603487Y-113278380D01*
X137471632Y-113146525D01*
X137228411Y-112984010D01*
X136958158Y-112872068D01*
X136671260Y-112815000D01*
X136378740Y-112815000D01*
X136091842Y-112872068D01*
X135821589Y-112984010D01*
X135578368Y-113146525D01*
X135371525Y-113353368D01*
X135249805Y-113535534D01*
X135180178Y-113418645D01*
X134985269Y-113202412D01*
X134751920Y-113028359D01*
X134489099Y-112903175D01*
X134341890Y-112858524D01*
X134112000Y-112979845D01*
X133858000Y-112979845D01*
X133628110Y-112858524D01*
X133480901Y-112903175D01*
X133218080Y-113028359D01*
X132984731Y-113202412D01*
X132789822Y-113418645D01*
X132640843Y-113668748D01*
X132543519Y-113943109D01*
X123318964Y-113943109D01*
X123324119Y-113936313D01*
X122819869Y-112854948D01*
X121737907Y-113359475D01*
X121725701Y-113618823D01*
X119660000Y-113618823D01*
X119660000Y-110237893D01*
X120322848Y-110237893D01*
X120322848Y-110530413D01*
X120379916Y-110817311D01*
X120491858Y-111087564D01*
X120654373Y-111330785D01*
X120861216Y-111537628D01*
X121104437Y-111700143D01*
X121374690Y-111812085D01*
X121644526Y-111865759D01*
X121510886Y-112114153D01*
X121425622Y-112392499D01*
X121396299Y-112682131D01*
X121424044Y-112971917D01*
X121630561Y-113129273D01*
X122712524Y-112624745D01*
X122704072Y-112606619D01*
X122934275Y-112499274D01*
X122942727Y-112517400D01*
X122960853Y-112508948D01*
X123068198Y-112739151D01*
X123050072Y-112747603D01*
X123554321Y-113828968D01*
X123813944Y-113841767D01*
X123928491Y-113739086D01*
X124113782Y-113514558D01*
X124251710Y-113258195D01*
X124336974Y-112979849D01*
X124350880Y-112842499D01*
X124479909Y-112928714D01*
X124750162Y-113040656D01*
X125037060Y-113097724D01*
X125329580Y-113097724D01*
X125616478Y-113040656D01*
X125886731Y-112928714D01*
X126129952Y-112766199D01*
X126336795Y-112559356D01*
X126499310Y-112316135D01*
X126611252Y-112045882D01*
X126664744Y-111776963D01*
X126781930Y-111855264D01*
X127052183Y-111967206D01*
X127339081Y-112024274D01*
X127631601Y-112024274D01*
X127918499Y-111967206D01*
X128188752Y-111855264D01*
X128431973Y-111692749D01*
X128638816Y-111485906D01*
X128801331Y-111242685D01*
X128913273Y-110972432D01*
X128966765Y-110703511D01*
X129083952Y-110781813D01*
X129354205Y-110893755D01*
X129641103Y-110950823D01*
X129933623Y-110950823D01*
X130220521Y-110893755D01*
X130490774Y-110781813D01*
X130733995Y-110619298D01*
X130940838Y-110412455D01*
X131103353Y-110169234D01*
X131215295Y-109898981D01*
X131268787Y-109630061D01*
X131385974Y-109708363D01*
X131656227Y-109820305D01*
X131943125Y-109877373D01*
X132235645Y-109877373D01*
X132522543Y-109820305D01*
X132792796Y-109708363D01*
X133036017Y-109545848D01*
X133242860Y-109339005D01*
X133405375Y-109095784D01*
X133517317Y-108825531D01*
X133570809Y-108556611D01*
X133687996Y-108634913D01*
X133958249Y-108746855D01*
X134245147Y-108803923D01*
X134537667Y-108803923D01*
X134824565Y-108746855D01*
X135094818Y-108634913D01*
X135338039Y-108472398D01*
X135544882Y-108265555D01*
X135707397Y-108022334D01*
X135819339Y-107752081D01*
X135874326Y-107475647D01*
X135982707Y-107549355D01*
X136250738Y-107662956D01*
X136535782Y-107722085D01*
X136826884Y-107724467D01*
X136979171Y-107702721D01*
X137136250Y-107495611D01*
X136632000Y-106414246D01*
X136613874Y-106422698D01*
X136506529Y-106192495D01*
X136524655Y-106184043D01*
X136516203Y-106165917D01*
X136746406Y-106058572D01*
X136754858Y-106076698D01*
X136772984Y-106068246D01*
X136880329Y-106298449D01*
X136862203Y-106306901D01*
X137366452Y-107388266D01*
X137626075Y-107401065D01*
X137740622Y-107298384D01*
X137925913Y-107073856D01*
X138063841Y-106817493D01*
X138149105Y-106539147D01*
X138163011Y-106401798D01*
X138292039Y-106488012D01*
X138562292Y-106599954D01*
X138849190Y-106657022D01*
X139141710Y-106657022D01*
X139428608Y-106599954D01*
X139698861Y-106488012D01*
X139942082Y-106325497D01*
X140148925Y-106118654D01*
X140311440Y-105875433D01*
X140423382Y-105605180D01*
X140480450Y-105318282D01*
X140480450Y-105025762D01*
X140423382Y-104738864D01*
X140311440Y-104468611D01*
X140148925Y-104225390D01*
X139942082Y-104018547D01*
X139698861Y-103856032D01*
X139468179Y-103760481D01*
X139522023Y-103712211D01*
X139597082Y-103612151D01*
X139651179Y-103499369D01*
X139682233Y-103378202D01*
X139689052Y-103253304D01*
X139671373Y-103129475D01*
X139629877Y-103011475D01*
X138911426Y-101470752D01*
X138847706Y-101363115D01*
X138764211Y-101269977D01*
X138664151Y-101194918D01*
X138551369Y-101140821D01*
X138430202Y-101109767D01*
X138305304Y-101102948D01*
X138181475Y-101120627D01*
X138063475Y-101162123D01*
X136522752Y-101880574D01*
X136415115Y-101944294D01*
X136321977Y-102027789D01*
X136246918Y-102127849D01*
X136192821Y-102240631D01*
X136161767Y-102361798D01*
X136154948Y-102486696D01*
X136165721Y-102562152D01*
X136053136Y-102515518D01*
X135766238Y-102458450D01*
X135473718Y-102458450D01*
X135186820Y-102515518D01*
X134916567Y-102627460D01*
X134673346Y-102789975D01*
X134466503Y-102996818D01*
X134303988Y-103240039D01*
X134192046Y-103510292D01*
X134138554Y-103779213D01*
X134021367Y-103700911D01*
X133751114Y-103588969D01*
X133464216Y-103531901D01*
X133171696Y-103531901D01*
X132884798Y-103588969D01*
X132614545Y-103700911D01*
X132371324Y-103863426D01*
X132164481Y-104070269D01*
X132001966Y-104313490D01*
X131890024Y-104583743D01*
X131836532Y-104852662D01*
X131719346Y-104774361D01*
X131449093Y-104662419D01*
X131162195Y-104605351D01*
X130869675Y-104605351D01*
X130582777Y-104662419D01*
X130312524Y-104774361D01*
X130069303Y-104936876D01*
X129862460Y-105143719D01*
X129699945Y-105386940D01*
X129588003Y-105657193D01*
X129534511Y-105926114D01*
X129417324Y-105847812D01*
X129147071Y-105735870D01*
X128860173Y-105678802D01*
X128567653Y-105678802D01*
X128280755Y-105735870D01*
X128010502Y-105847812D01*
X127767281Y-106010327D01*
X127560438Y-106217170D01*
X127397923Y-106460391D01*
X127285981Y-106730644D01*
X127232489Y-106999564D01*
X127115302Y-106921262D01*
X126845049Y-106809320D01*
X126558151Y-106752252D01*
X126265631Y-106752252D01*
X125978733Y-106809320D01*
X125708480Y-106921262D01*
X125465259Y-107083777D01*
X125258416Y-107290620D01*
X125095901Y-107533841D01*
X124983959Y-107804094D01*
X124930467Y-108073014D01*
X124813280Y-107994712D01*
X124543027Y-107882770D01*
X124256129Y-107825702D01*
X123963609Y-107825702D01*
X123676711Y-107882770D01*
X123406458Y-107994712D01*
X123163237Y-108157227D01*
X122956394Y-108364070D01*
X122793879Y-108607291D01*
X122681937Y-108877544D01*
X122628445Y-109146464D01*
X122511259Y-109068163D01*
X122241006Y-108956221D01*
X121954108Y-108899153D01*
X121661588Y-108899153D01*
X121374690Y-108956221D01*
X121104437Y-109068163D01*
X120861216Y-109230678D01*
X120654373Y-109437521D01*
X120491858Y-109680742D01*
X120379916Y-109950995D01*
X120322848Y-110237893D01*
X119660000Y-110237893D01*
X119660000Y-97327663D01*
X125122595Y-97327663D01*
X125129093Y-97361714D01*
X125132307Y-97396216D01*
X125141705Y-97427799D01*
X125147882Y-97460167D01*
X125160893Y-97492285D01*
X125170780Y-97525510D01*
X125186161Y-97554657D01*
X125198532Y-97585193D01*
X125217561Y-97614157D01*
X125233738Y-97644812D01*
X125254508Y-97670396D01*
X125272601Y-97697935D01*
X125296918Y-97722634D01*
X125318762Y-97749540D01*
X125344118Y-97770575D01*
X125367241Y-97794061D01*
X125395916Y-97813546D01*
X125422583Y-97835668D01*
X125451555Y-97851352D01*
X125478816Y-97869876D01*
X125510731Y-97883388D01*
X125541211Y-97899888D01*
X125604913Y-97919581D01*
X128812166Y-98919825D01*
X128873515Y-98950064D01*
X129003823Y-98984950D01*
X129104703Y-98991540D01*
X130730905Y-98937955D01*
X130743865Y-98939261D01*
X130771265Y-98936625D01*
X131979707Y-98896805D01*
X132002090Y-98899010D01*
X132046979Y-98894589D01*
X132058263Y-98894217D01*
X132080418Y-98891295D01*
X132136336Y-98885788D01*
X132147221Y-98882486D01*
X132158490Y-98881000D01*
X132211652Y-98862942D01*
X132265424Y-98846630D01*
X132275456Y-98841268D01*
X132286218Y-98837612D01*
X132334842Y-98809525D01*
X132384391Y-98783040D01*
X132393183Y-98775825D01*
X132403026Y-98770139D01*
X132445240Y-98733103D01*
X132488667Y-98697463D01*
X132495881Y-98688673D01*
X132504428Y-98681174D01*
X132538608Y-98636610D01*
X132574244Y-98593187D01*
X132579606Y-98583156D01*
X132586524Y-98574136D01*
X132611354Y-98523761D01*
X132637834Y-98474220D01*
X132641134Y-98463341D01*
X132646162Y-98453140D01*
X132660689Y-98398876D01*
X132676992Y-98345132D01*
X132678107Y-98333816D01*
X132681047Y-98322832D01*
X132684709Y-98266782D01*
X132686901Y-98244524D01*
X132686901Y-98233226D01*
X132689841Y-98188224D01*
X132686901Y-98165929D01*
X132686901Y-94845130D01*
X132688785Y-94833645D01*
X132686901Y-94777834D01*
X132686901Y-94755704D01*
X132685764Y-94744164D01*
X132684234Y-94698827D01*
X132679170Y-94677208D01*
X132676992Y-94655096D01*
X132663814Y-94611654D01*
X132653468Y-94567486D01*
X132644285Y-94547273D01*
X132637834Y-94526008D01*
X132616430Y-94485965D01*
X132597669Y-94444671D01*
X132584719Y-94426638D01*
X132574244Y-94407041D01*
X132545449Y-94371955D01*
X132518984Y-94335102D01*
X132502758Y-94319935D01*
X132488666Y-94302765D01*
X132453586Y-94273976D01*
X132420434Y-94242989D01*
X132401561Y-94231280D01*
X132384390Y-94217188D01*
X132344362Y-94195792D01*
X132305807Y-94171872D01*
X132285018Y-94164072D01*
X132265423Y-94153598D01*
X132221982Y-94140420D01*
X132179508Y-94124484D01*
X132157595Y-94120889D01*
X132136335Y-94114440D01*
X132091165Y-94109991D01*
X132079747Y-94108118D01*
X132057715Y-94106697D01*
X132002090Y-94101218D01*
X131990496Y-94102360D01*
X131495177Y-94070404D01*
X131341726Y-93938281D01*
X131332473Y-93927130D01*
X131324893Y-93914460D01*
X131289464Y-93875304D01*
X131255754Y-93834683D01*
X131244295Y-93825383D01*
X131234387Y-93814433D01*
X131191997Y-93782939D01*
X131151012Y-93749677D01*
X131137957Y-93742790D01*
X131126105Y-93733985D01*
X131078396Y-93711371D01*
X131031699Y-93686738D01*
X131017548Y-93682530D01*
X131004209Y-93676207D01*
X130953007Y-93663336D01*
X130902399Y-93648286D01*
X130854135Y-93643799D01*
X129978672Y-93513185D01*
X129977946Y-93500313D01*
X129972952Y-93480971D01*
X129939350Y-93189212D01*
X129939872Y-93171131D01*
X129931702Y-93122810D01*
X129929935Y-93107463D01*
X129926135Y-93089880D01*
X129917541Y-93039047D01*
X129912012Y-93024526D01*
X129908729Y-93009336D01*
X129888219Y-92962042D01*
X129869872Y-92913860D01*
X129861613Y-92900692D01*
X129855431Y-92886437D01*
X129826087Y-92844051D01*
X129798694Y-92800376D01*
X129788027Y-92789075D01*
X129779182Y-92776298D01*
X129742137Y-92740454D01*
X129729785Y-92727368D01*
X129718126Y-92717223D01*
X129682911Y-92683150D01*
X129667708Y-92673350D01*
X129560235Y-92579830D01*
X129560104Y-92578488D01*
X129560700Y-92552279D01*
X129553630Y-92511970D01*
X129549667Y-92471247D01*
X129542087Y-92446156D01*
X129537559Y-92420337D01*
X129522762Y-92382185D01*
X129510929Y-92343013D01*
X129498599Y-92319881D01*
X129489121Y-92295443D01*
X129467164Y-92260908D01*
X129447917Y-92224799D01*
X129431315Y-92204521D01*
X129417249Y-92182398D01*
X129388976Y-92152810D01*
X129363055Y-92121151D01*
X129342810Y-92104497D01*
X129324703Y-92085548D01*
X129291212Y-92062052D01*
X129259602Y-92036049D01*
X129236492Y-92023662D01*
X129215041Y-92008613D01*
X129177610Y-91992102D01*
X129141535Y-91972766D01*
X129084501Y-91955394D01*
X128810659Y-91865479D01*
X128734622Y-91782629D01*
X128725272Y-91768810D01*
X128689411Y-91733365D01*
X128678026Y-91720960D01*
X128665678Y-91709908D01*
X128629998Y-91674642D01*
X128615845Y-91665305D01*
X128603221Y-91654005D01*
X128560060Y-91628499D01*
X128518184Y-91600871D01*
X128502483Y-91594475D01*
X128487895Y-91585854D01*
X128440575Y-91569254D01*
X128394125Y-91550331D01*
X128377484Y-91547122D01*
X128361490Y-91541511D01*
X128311839Y-91534462D01*
X128262591Y-91524964D01*
X128245639Y-91525063D01*
X128228862Y-91522681D01*
X128178797Y-91525453D01*
X128128635Y-91525746D01*
X128112028Y-91529150D01*
X128095110Y-91530087D01*
X128048021Y-91542194D01*
X128047612Y-91542020D01*
X128032317Y-91538825D01*
X128017670Y-91533368D01*
X127966851Y-91525151D01*
X127916483Y-91514631D01*
X127900858Y-91514481D01*
X127885430Y-91511987D01*
X127834001Y-91513841D01*
X127816096Y-91513670D01*
X127800618Y-91515045D01*
X127751560Y-91516814D01*
X127734044Y-91520960D01*
X127592709Y-91533516D01*
X127592173Y-91533459D01*
X127526415Y-91539406D01*
X127493263Y-91542351D01*
X127492728Y-91542452D01*
X127458760Y-91545524D01*
X127427076Y-91554860D01*
X127394617Y-91560994D01*
X127362979Y-91573746D01*
X127330264Y-91583385D01*
X127301014Y-91598720D01*
X127270371Y-91611071D01*
X127241823Y-91629753D01*
X127241351Y-91630001D01*
X127214122Y-91647882D01*
X127158282Y-91684425D01*
X127157893Y-91684806D01*
X126934977Y-91831192D01*
X126910959Y-91843186D01*
X126879114Y-91867876D01*
X126873504Y-91871560D01*
X126852749Y-91888317D01*
X126805093Y-91925266D01*
X126800656Y-91930376D01*
X126795393Y-91934626D01*
X126756805Y-91980888D01*
X126717274Y-92026422D01*
X126713918Y-92032303D01*
X126709587Y-92037495D01*
X126680761Y-92090403D01*
X126650877Y-92142767D01*
X126648735Y-92149184D01*
X126645497Y-92155126D01*
X126627542Y-92212659D01*
X126608454Y-92269830D01*
X126607604Y-92276545D01*
X126605589Y-92283002D01*
X126599202Y-92342935D01*
X126591635Y-92402728D01*
X126592111Y-92409475D01*
X126591394Y-92416205D01*
X126596824Y-92476248D01*
X126601066Y-92536352D01*
X126602850Y-92542877D01*
X126603459Y-92549617D01*
X126620494Y-92607435D01*
X126636384Y-92665571D01*
X126639407Y-92671624D01*
X126641319Y-92678114D01*
X126651731Y-92697974D01*
X126648742Y-92715622D01*
X126648801Y-92717695D01*
X126632230Y-92819256D01*
X126509896Y-93054485D01*
X126492990Y-93079920D01*
X126479070Y-93113759D01*
X126477674Y-93116443D01*
X126466362Y-93144650D01*
X126450293Y-93183714D01*
X125826213Y-93190424D01*
X125725717Y-93201414D01*
X125597058Y-93241957D01*
X125478781Y-93306823D01*
X125426749Y-93350469D01*
X125406758Y-93362902D01*
X125375233Y-93392433D01*
X125341709Y-93419649D01*
X125326126Y-93438433D01*
X125308309Y-93455123D01*
X125283150Y-93490238D01*
X125255581Y-93523470D01*
X125243963Y-93544932D01*
X125229743Y-93564778D01*
X125211922Y-93604118D01*
X125191361Y-93642098D01*
X125184150Y-93665423D01*
X125174079Y-93687655D01*
X125164276Y-93729711D01*
X125151519Y-93770977D01*
X125148998Y-93795258D01*
X125143457Y-93819028D01*
X125142047Y-93862189D01*
X125141077Y-93871531D01*
X125140948Y-93895831D01*
X125139053Y-93953851D01*
X125140591Y-93963165D01*
X125123114Y-97261105D01*
X125122595Y-97327663D01*
X119660000Y-97327663D01*
X119660000Y-88660000D01*
X141340001Y-88660000D01*
X141340000Y-121340000D01*
%TA.AperFunction,Conductor*%
D17*
G36*
X141340000Y-121340000D02*
G01*
X119660000Y-121340000D01*
X119660000Y-119101891D01*
X122383519Y-119101891D01*
X122480843Y-119376252D01*
X122629822Y-119626355D01*
X122824731Y-119842588D01*
X123058080Y-120016641D01*
X123320901Y-120141825D01*
X123468110Y-120186476D01*
X123698000Y-120065155D01*
X123698000Y-118872000D01*
X122504186Y-118872000D01*
X122383519Y-119101891D01*
X119660000Y-119101891D01*
X119660000Y-118388109D01*
X122383519Y-118388109D01*
X122504186Y-118618000D01*
X123698000Y-118618000D01*
X123698000Y-117424845D01*
X123952000Y-117424845D01*
X123952000Y-118618000D01*
X123972000Y-118618000D01*
X123972000Y-118872000D01*
X123952000Y-118872000D01*
X123952000Y-120065155D01*
X124181890Y-120186476D01*
X124329099Y-120141825D01*
X124591920Y-120016641D01*
X124825269Y-119842588D01*
X125020178Y-119626355D01*
X125089805Y-119509466D01*
X125211525Y-119691632D01*
X125418368Y-119898475D01*
X125661589Y-120060990D01*
X125931842Y-120172932D01*
X126218740Y-120230000D01*
X126511260Y-120230000D01*
X126798158Y-120172932D01*
X127068411Y-120060990D01*
X127311632Y-119898475D01*
X127518475Y-119691632D01*
X127635000Y-119517240D01*
X127751525Y-119691632D01*
X127958368Y-119898475D01*
X128201589Y-120060990D01*
X128471842Y-120172932D01*
X128758740Y-120230000D01*
X129051260Y-120230000D01*
X129338158Y-120172932D01*
X129608411Y-120060990D01*
X129851632Y-119898475D01*
X130058475Y-119691632D01*
X130175000Y-119517240D01*
X130291525Y-119691632D01*
X130498368Y-119898475D01*
X130741589Y-120060990D01*
X131011842Y-120172932D01*
X131298740Y-120230000D01*
X131591260Y-120230000D01*
X131878158Y-120172932D01*
X132148411Y-120060990D01*
X132391632Y-119898475D01*
X132598475Y-119691632D01*
X132715000Y-119517240D01*
X132831525Y-119691632D01*
X133038368Y-119898475D01*
X133281589Y-120060990D01*
X133551842Y-120172932D01*
X133838740Y-120230000D01*
X134131260Y-120230000D01*
X134418158Y-120172932D01*
X134688411Y-120060990D01*
X134931632Y-119898475D01*
X135063487Y-119766620D01*
X135085498Y-119839180D01*
X135144463Y-119949494D01*
X135223815Y-120046185D01*
X135320506Y-120125537D01*
X135430820Y-120184502D01*
X135550518Y-120220812D01*
X135675000Y-120233072D01*
X136239250Y-120230000D01*
X136398000Y-120071250D01*
X136398000Y-118872000D01*
X136652000Y-118872000D01*
X136652000Y-120071250D01*
X136810750Y-120230000D01*
X137375000Y-120233072D01*
X137499482Y-120220812D01*
X137619180Y-120184502D01*
X137729494Y-120125537D01*
X137826185Y-120046185D01*
X137905537Y-119949494D01*
X137964502Y-119839180D01*
X138000812Y-119719482D01*
X138013072Y-119595000D01*
X138010000Y-119030750D01*
X137851250Y-118872000D01*
X136652000Y-118872000D01*
X136398000Y-118872000D01*
X136378000Y-118872000D01*
X136378000Y-118618000D01*
X136398000Y-118618000D01*
X136398000Y-117418750D01*
X136652000Y-117418750D01*
X136652000Y-118618000D01*
X137851250Y-118618000D01*
X138010000Y-118459250D01*
X138013072Y-117895000D01*
X138000812Y-117770518D01*
X137964502Y-117650820D01*
X137905537Y-117540506D01*
X137826185Y-117443815D01*
X137729494Y-117364463D01*
X137619180Y-117305498D01*
X137499482Y-117269188D01*
X137375000Y-117256928D01*
X136810750Y-117260000D01*
X136652000Y-117418750D01*
X136398000Y-117418750D01*
X136239250Y-117260000D01*
X135675000Y-117256928D01*
X135550518Y-117269188D01*
X135430820Y-117305498D01*
X135320506Y-117364463D01*
X135223815Y-117443815D01*
X135144463Y-117540506D01*
X135085498Y-117650820D01*
X135063487Y-117723380D01*
X134931632Y-117591525D01*
X134688411Y-117429010D01*
X134418158Y-117317068D01*
X134131260Y-117260000D01*
X133838740Y-117260000D01*
X133551842Y-117317068D01*
X133281589Y-117429010D01*
X133038368Y-117591525D01*
X132831525Y-117798368D01*
X132715000Y-117972760D01*
X132598475Y-117798368D01*
X132391632Y-117591525D01*
X132148411Y-117429010D01*
X131878158Y-117317068D01*
X131591260Y-117260000D01*
X131298740Y-117260000D01*
X131011842Y-117317068D01*
X130741589Y-117429010D01*
X130498368Y-117591525D01*
X130291525Y-117798368D01*
X130175000Y-117972760D01*
X130058475Y-117798368D01*
X129851632Y-117591525D01*
X129608411Y-117429010D01*
X129338158Y-117317068D01*
X129051260Y-117260000D01*
X128758740Y-117260000D01*
X128471842Y-117317068D01*
X128201589Y-117429010D01*
X127958368Y-117591525D01*
X127751525Y-117798368D01*
X127635000Y-117972760D01*
X127518475Y-117798368D01*
X127311632Y-117591525D01*
X127068411Y-117429010D01*
X126798158Y-117317068D01*
X126511260Y-117260000D01*
X126218740Y-117260000D01*
X125931842Y-117317068D01*
X125661589Y-117429010D01*
X125418368Y-117591525D01*
X125211525Y-117798368D01*
X125089805Y-117980534D01*
X125020178Y-117863645D01*
X124825269Y-117647412D01*
X124591920Y-117473359D01*
X124329099Y-117348175D01*
X124181890Y-117303524D01*
X123952000Y-117424845D01*
X123698000Y-117424845D01*
X123468110Y-117303524D01*
X123320901Y-117348175D01*
X123058080Y-117473359D01*
X122824731Y-117647412D01*
X122629822Y-117863645D01*
X122480843Y-118113748D01*
X122383519Y-118388109D01*
X119660000Y-118388109D01*
X119660000Y-114656891D01*
X132543519Y-114656891D01*
X132640843Y-114931252D01*
X132789822Y-115181355D01*
X132984731Y-115397588D01*
X133218080Y-115571641D01*
X133480901Y-115696825D01*
X133628110Y-115741476D01*
X133858000Y-115620155D01*
X133858000Y-114427000D01*
X132664186Y-114427000D01*
X132543519Y-114656891D01*
X119660000Y-114656891D01*
X119660000Y-113618823D01*
X121725701Y-113618823D01*
X121929857Y-113826348D01*
X122170576Y-113990057D01*
X122438607Y-114103658D01*
X122723651Y-114162787D01*
X123014753Y-114165169D01*
X123167040Y-114143423D01*
X123318964Y-113943109D01*
X132543519Y-113943109D01*
X132664186Y-114173000D01*
X133858000Y-114173000D01*
X133858000Y-112979845D01*
X134112000Y-112979845D01*
X134112000Y-114173000D01*
X134132000Y-114173000D01*
X134132000Y-114427000D01*
X134112000Y-114427000D01*
X134112000Y-115620155D01*
X134341890Y-115741476D01*
X134489099Y-115696825D01*
X134751920Y-115571641D01*
X134985269Y-115397588D01*
X135180178Y-115181355D01*
X135249805Y-115064466D01*
X135371525Y-115246632D01*
X135578368Y-115453475D01*
X135821589Y-115615990D01*
X136091842Y-115727932D01*
X136378740Y-115785000D01*
X136671260Y-115785000D01*
X136958158Y-115727932D01*
X137228411Y-115615990D01*
X137471632Y-115453475D01*
X137603487Y-115321620D01*
X137625498Y-115394180D01*
X137684463Y-115504494D01*
X137763815Y-115601185D01*
X137860506Y-115680537D01*
X137970820Y-115739502D01*
X138090518Y-115775812D01*
X138215000Y-115788072D01*
X139915000Y-115788072D01*
X140039482Y-115775812D01*
X140159180Y-115739502D01*
X140269494Y-115680537D01*
X140366185Y-115601185D01*
X140445537Y-115504494D01*
X140504502Y-115394180D01*
X140540812Y-115274482D01*
X140553072Y-115150000D01*
X140553072Y-113450000D01*
X140540812Y-113325518D01*
X140504502Y-113205820D01*
X140445537Y-113095506D01*
X140366185Y-112998815D01*
X140269494Y-112919463D01*
X140159180Y-112860498D01*
X140039482Y-112824188D01*
X139915000Y-112811928D01*
X138215000Y-112811928D01*
X138090518Y-112824188D01*
X137970820Y-112860498D01*
X137860506Y-112919463D01*
X137763815Y-112998815D01*
X137684463Y-113095506D01*
X137625498Y-113205820D01*
X137603487Y-113278380D01*
X137471632Y-113146525D01*
X137228411Y-112984010D01*
X136958158Y-112872068D01*
X136671260Y-112815000D01*
X136378740Y-112815000D01*
X136091842Y-112872068D01*
X135821589Y-112984010D01*
X135578368Y-113146525D01*
X135371525Y-113353368D01*
X135249805Y-113535534D01*
X135180178Y-113418645D01*
X134985269Y-113202412D01*
X134751920Y-113028359D01*
X134489099Y-112903175D01*
X134341890Y-112858524D01*
X134112000Y-112979845D01*
X133858000Y-112979845D01*
X133628110Y-112858524D01*
X133480901Y-112903175D01*
X133218080Y-113028359D01*
X132984731Y-113202412D01*
X132789822Y-113418645D01*
X132640843Y-113668748D01*
X132543519Y-113943109D01*
X123318964Y-113943109D01*
X123324119Y-113936313D01*
X122819869Y-112854948D01*
X121737907Y-113359475D01*
X121725701Y-113618823D01*
X119660000Y-113618823D01*
X119660000Y-110237893D01*
X120322848Y-110237893D01*
X120322848Y-110530413D01*
X120379916Y-110817311D01*
X120491858Y-111087564D01*
X120654373Y-111330785D01*
X120861216Y-111537628D01*
X121104437Y-111700143D01*
X121374690Y-111812085D01*
X121644526Y-111865759D01*
X121510886Y-112114153D01*
X121425622Y-112392499D01*
X121396299Y-112682131D01*
X121424044Y-112971917D01*
X121630561Y-113129273D01*
X122712524Y-112624745D01*
X122704072Y-112606619D01*
X122934275Y-112499274D01*
X122942727Y-112517400D01*
X122960853Y-112508948D01*
X123068198Y-112739151D01*
X123050072Y-112747603D01*
X123554321Y-113828968D01*
X123813944Y-113841767D01*
X123928491Y-113739086D01*
X124113782Y-113514558D01*
X124251710Y-113258195D01*
X124336974Y-112979849D01*
X124350880Y-112842499D01*
X124479909Y-112928714D01*
X124750162Y-113040656D01*
X125037060Y-113097724D01*
X125329580Y-113097724D01*
X125616478Y-113040656D01*
X125886731Y-112928714D01*
X126129952Y-112766199D01*
X126336795Y-112559356D01*
X126499310Y-112316135D01*
X126611252Y-112045882D01*
X126664744Y-111776963D01*
X126781930Y-111855264D01*
X127052183Y-111967206D01*
X127339081Y-112024274D01*
X127631601Y-112024274D01*
X127918499Y-111967206D01*
X128188752Y-111855264D01*
X128431973Y-111692749D01*
X128638816Y-111485906D01*
X128801331Y-111242685D01*
X128913273Y-110972432D01*
X128966765Y-110703511D01*
X129083952Y-110781813D01*
X129354205Y-110893755D01*
X129641103Y-110950823D01*
X129933623Y-110950823D01*
X130220521Y-110893755D01*
X130490774Y-110781813D01*
X130733995Y-110619298D01*
X130940838Y-110412455D01*
X131103353Y-110169234D01*
X131215295Y-109898981D01*
X131268787Y-109630061D01*
X131385974Y-109708363D01*
X131656227Y-109820305D01*
X131943125Y-109877373D01*
X132235645Y-109877373D01*
X132522543Y-109820305D01*
X132792796Y-109708363D01*
X133036017Y-109545848D01*
X133242860Y-109339005D01*
X133405375Y-109095784D01*
X133517317Y-108825531D01*
X133570809Y-108556611D01*
X133687996Y-108634913D01*
X133958249Y-108746855D01*
X134245147Y-108803923D01*
X134537667Y-108803923D01*
X134824565Y-108746855D01*
X135094818Y-108634913D01*
X135338039Y-108472398D01*
X135544882Y-108265555D01*
X135707397Y-108022334D01*
X135819339Y-107752081D01*
X135874326Y-107475647D01*
X135982707Y-107549355D01*
X136250738Y-107662956D01*
X136535782Y-107722085D01*
X136826884Y-107724467D01*
X136979171Y-107702721D01*
X137136250Y-107495611D01*
X136632000Y-106414246D01*
X136613874Y-106422698D01*
X136506529Y-106192495D01*
X136524655Y-106184043D01*
X136516203Y-106165917D01*
X136746406Y-106058572D01*
X136754858Y-106076698D01*
X136772984Y-106068246D01*
X136880329Y-106298449D01*
X136862203Y-106306901D01*
X137366452Y-107388266D01*
X137626075Y-107401065D01*
X137740622Y-107298384D01*
X137925913Y-107073856D01*
X138063841Y-106817493D01*
X138149105Y-106539147D01*
X138163011Y-106401798D01*
X138292039Y-106488012D01*
X138562292Y-106599954D01*
X138849190Y-106657022D01*
X139141710Y-106657022D01*
X139428608Y-106599954D01*
X139698861Y-106488012D01*
X139942082Y-106325497D01*
X140148925Y-106118654D01*
X140311440Y-105875433D01*
X140423382Y-105605180D01*
X140480450Y-105318282D01*
X140480450Y-105025762D01*
X140423382Y-104738864D01*
X140311440Y-104468611D01*
X140148925Y-104225390D01*
X139942082Y-104018547D01*
X139698861Y-103856032D01*
X139468179Y-103760481D01*
X139522023Y-103712211D01*
X139597082Y-103612151D01*
X139651179Y-103499369D01*
X139682233Y-103378202D01*
X139689052Y-103253304D01*
X139671373Y-103129475D01*
X139629877Y-103011475D01*
X138911426Y-101470752D01*
X138847706Y-101363115D01*
X138764211Y-101269977D01*
X138664151Y-101194918D01*
X138551369Y-101140821D01*
X138430202Y-101109767D01*
X138305304Y-101102948D01*
X138181475Y-101120627D01*
X138063475Y-101162123D01*
X136522752Y-101880574D01*
X136415115Y-101944294D01*
X136321977Y-102027789D01*
X136246918Y-102127849D01*
X136192821Y-102240631D01*
X136161767Y-102361798D01*
X136154948Y-102486696D01*
X136165721Y-102562152D01*
X136053136Y-102515518D01*
X135766238Y-102458450D01*
X135473718Y-102458450D01*
X135186820Y-102515518D01*
X134916567Y-102627460D01*
X134673346Y-102789975D01*
X134466503Y-102996818D01*
X134303988Y-103240039D01*
X134192046Y-103510292D01*
X134138554Y-103779213D01*
X134021367Y-103700911D01*
X133751114Y-103588969D01*
X133464216Y-103531901D01*
X133171696Y-103531901D01*
X132884798Y-103588969D01*
X132614545Y-103700911D01*
X132371324Y-103863426D01*
X132164481Y-104070269D01*
X132001966Y-104313490D01*
X131890024Y-104583743D01*
X131836532Y-104852662D01*
X131719346Y-104774361D01*
X131449093Y-104662419D01*
X131162195Y-104605351D01*
X130869675Y-104605351D01*
X130582777Y-104662419D01*
X130312524Y-104774361D01*
X130069303Y-104936876D01*
X129862460Y-105143719D01*
X129699945Y-105386940D01*
X129588003Y-105657193D01*
X129534511Y-105926114D01*
X129417324Y-105847812D01*
X129147071Y-105735870D01*
X128860173Y-105678802D01*
X128567653Y-105678802D01*
X128280755Y-105735870D01*
X128010502Y-105847812D01*
X127767281Y-106010327D01*
X127560438Y-106217170D01*
X127397923Y-106460391D01*
X127285981Y-106730644D01*
X127232489Y-106999564D01*
X127115302Y-106921262D01*
X126845049Y-106809320D01*
X126558151Y-106752252D01*
X126265631Y-106752252D01*
X125978733Y-106809320D01*
X125708480Y-106921262D01*
X125465259Y-107083777D01*
X125258416Y-107290620D01*
X125095901Y-107533841D01*
X124983959Y-107804094D01*
X124930467Y-108073014D01*
X124813280Y-107994712D01*
X124543027Y-107882770D01*
X124256129Y-107825702D01*
X123963609Y-107825702D01*
X123676711Y-107882770D01*
X123406458Y-107994712D01*
X123163237Y-108157227D01*
X122956394Y-108364070D01*
X122793879Y-108607291D01*
X122681937Y-108877544D01*
X122628445Y-109146464D01*
X122511259Y-109068163D01*
X122241006Y-108956221D01*
X121954108Y-108899153D01*
X121661588Y-108899153D01*
X121374690Y-108956221D01*
X121104437Y-109068163D01*
X120861216Y-109230678D01*
X120654373Y-109437521D01*
X120491858Y-109680742D01*
X120379916Y-109950995D01*
X120322848Y-110237893D01*
X119660000Y-110237893D01*
X119660000Y-97327663D01*
X125122595Y-97327663D01*
X125129093Y-97361714D01*
X125132307Y-97396216D01*
X125141705Y-97427799D01*
X125147882Y-97460167D01*
X125160893Y-97492285D01*
X125170780Y-97525510D01*
X125186161Y-97554657D01*
X125198532Y-97585193D01*
X125217561Y-97614157D01*
X125233738Y-97644812D01*
X125254508Y-97670396D01*
X125272601Y-97697935D01*
X125296918Y-97722634D01*
X125318762Y-97749540D01*
X125344118Y-97770575D01*
X125367241Y-97794061D01*
X125395916Y-97813546D01*
X125422583Y-97835668D01*
X125451555Y-97851352D01*
X125478816Y-97869876D01*
X125510731Y-97883388D01*
X125541211Y-97899888D01*
X125604913Y-97919581D01*
X128812166Y-98919825D01*
X128873515Y-98950064D01*
X129003823Y-98984950D01*
X129104703Y-98991540D01*
X130730905Y-98937955D01*
X130743865Y-98939261D01*
X130771265Y-98936625D01*
X131979707Y-98896805D01*
X132002090Y-98899010D01*
X132046979Y-98894589D01*
X132058263Y-98894217D01*
X132080418Y-98891295D01*
X132136336Y-98885788D01*
X132147221Y-98882486D01*
X132158490Y-98881000D01*
X132211652Y-98862942D01*
X132265424Y-98846630D01*
X132275456Y-98841268D01*
X132286218Y-98837612D01*
X132334842Y-98809525D01*
X132384391Y-98783040D01*
X132393183Y-98775825D01*
X132403026Y-98770139D01*
X132445240Y-98733103D01*
X132488667Y-98697463D01*
X132495881Y-98688673D01*
X132504428Y-98681174D01*
X132538608Y-98636610D01*
X132574244Y-98593187D01*
X132579606Y-98583156D01*
X132586524Y-98574136D01*
X132611354Y-98523761D01*
X132637834Y-98474220D01*
X132641134Y-98463341D01*
X132646162Y-98453140D01*
X132660689Y-98398876D01*
X132676992Y-98345132D01*
X132678107Y-98333816D01*
X132681047Y-98322832D01*
X132684709Y-98266782D01*
X132686901Y-98244524D01*
X132686901Y-98233226D01*
X132689841Y-98188224D01*
X132686901Y-98165929D01*
X132686901Y-94845130D01*
X132688785Y-94833645D01*
X132686901Y-94777834D01*
X132686901Y-94755704D01*
X132685764Y-94744164D01*
X132684234Y-94698827D01*
X132679170Y-94677208D01*
X132676992Y-94655096D01*
X132663814Y-94611654D01*
X132653468Y-94567486D01*
X132644285Y-94547273D01*
X132637834Y-94526008D01*
X132616430Y-94485965D01*
X132597669Y-94444671D01*
X132584719Y-94426638D01*
X132574244Y-94407041D01*
X132545449Y-94371955D01*
X132518984Y-94335102D01*
X132502758Y-94319935D01*
X132488666Y-94302765D01*
X132453586Y-94273976D01*
X132420434Y-94242989D01*
X132401561Y-94231280D01*
X132384390Y-94217188D01*
X132344362Y-94195792D01*
X132305807Y-94171872D01*
X132285018Y-94164072D01*
X132265423Y-94153598D01*
X132221982Y-94140420D01*
X132179508Y-94124484D01*
X132157595Y-94120889D01*
X132136335Y-94114440D01*
X132091165Y-94109991D01*
X132079747Y-94108118D01*
X132057715Y-94106697D01*
X132002090Y-94101218D01*
X131990496Y-94102360D01*
X131495177Y-94070404D01*
X131341726Y-93938281D01*
X131332473Y-93927130D01*
X131324893Y-93914460D01*
X131289464Y-93875304D01*
X131255754Y-93834683D01*
X131244295Y-93825383D01*
X131234387Y-93814433D01*
X131191997Y-93782939D01*
X131151012Y-93749677D01*
X131137957Y-93742790D01*
X131126105Y-93733985D01*
X131078396Y-93711371D01*
X131031699Y-93686738D01*
X131017548Y-93682530D01*
X131004209Y-93676207D01*
X130953007Y-93663336D01*
X130902399Y-93648286D01*
X130854135Y-93643799D01*
X129978672Y-93513185D01*
X129977946Y-93500313D01*
X129972952Y-93480971D01*
X129939350Y-93189212D01*
X129939872Y-93171131D01*
X129931702Y-93122810D01*
X129929935Y-93107463D01*
X129926135Y-93089880D01*
X129917541Y-93039047D01*
X129912012Y-93024526D01*
X129908729Y-93009336D01*
X129888219Y-92962042D01*
X129869872Y-92913860D01*
X129861613Y-92900692D01*
X129855431Y-92886437D01*
X129826087Y-92844051D01*
X129798694Y-92800376D01*
X129788027Y-92789075D01*
X129779182Y-92776298D01*
X129742137Y-92740454D01*
X129729785Y-92727368D01*
X129718126Y-92717223D01*
X129682911Y-92683150D01*
X129667708Y-92673350D01*
X129560235Y-92579830D01*
X129560104Y-92578488D01*
X129560700Y-92552279D01*
X129553630Y-92511970D01*
X129549667Y-92471247D01*
X129542087Y-92446156D01*
X129537559Y-92420337D01*
X129522762Y-92382185D01*
X129510929Y-92343013D01*
X129498599Y-92319881D01*
X129489121Y-92295443D01*
X129467164Y-92260908D01*
X129447917Y-92224799D01*
X129431315Y-92204521D01*
X129417249Y-92182398D01*
X129388976Y-92152810D01*
X129363055Y-92121151D01*
X129342810Y-92104497D01*
X129324703Y-92085548D01*
X129291212Y-92062052D01*
X129259602Y-92036049D01*
X129236492Y-92023662D01*
X129215041Y-92008613D01*
X129177610Y-91992102D01*
X129141535Y-91972766D01*
X129084501Y-91955394D01*
X128810659Y-91865479D01*
X128734622Y-91782629D01*
X128725272Y-91768810D01*
X128689411Y-91733365D01*
X128678026Y-91720960D01*
X128665678Y-91709908D01*
X128629998Y-91674642D01*
X128615845Y-91665305D01*
X128603221Y-91654005D01*
X128560060Y-91628499D01*
X128518184Y-91600871D01*
X128502483Y-91594475D01*
X128487895Y-91585854D01*
X128440575Y-91569254D01*
X128394125Y-91550331D01*
X128377484Y-91547122D01*
X128361490Y-91541511D01*
X128311839Y-91534462D01*
X128262591Y-91524964D01*
X128245639Y-91525063D01*
X128228862Y-91522681D01*
X128178797Y-91525453D01*
X128128635Y-91525746D01*
X128112028Y-91529150D01*
X128095110Y-91530087D01*
X128048021Y-91542194D01*
X128047612Y-91542020D01*
X128032317Y-91538825D01*
X128017670Y-91533368D01*
X127966851Y-91525151D01*
X127916483Y-91514631D01*
X127900858Y-91514481D01*
X127885430Y-91511987D01*
X127834001Y-91513841D01*
X127816096Y-91513670D01*
X127800618Y-91515045D01*
X127751560Y-91516814D01*
X127734044Y-91520960D01*
X127592709Y-91533516D01*
X127592173Y-91533459D01*
X127526415Y-91539406D01*
X127493263Y-91542351D01*
X127492728Y-91542452D01*
X127458760Y-91545524D01*
X127427076Y-91554860D01*
X127394617Y-91560994D01*
X127362979Y-91573746D01*
X127330264Y-91583385D01*
X127301014Y-91598720D01*
X127270371Y-91611071D01*
X127241823Y-91629753D01*
X127241351Y-91630001D01*
X127214122Y-91647882D01*
X127158282Y-91684425D01*
X127157893Y-91684806D01*
X126934977Y-91831192D01*
X126910959Y-91843186D01*
X126879114Y-91867876D01*
X126873504Y-91871560D01*
X126852749Y-91888317D01*
X126805093Y-91925266D01*
X126800656Y-91930376D01*
X126795393Y-91934626D01*
X126756805Y-91980888D01*
X126717274Y-92026422D01*
X126713918Y-92032303D01*
X126709587Y-92037495D01*
X126680761Y-92090403D01*
X126650877Y-92142767D01*
X126648735Y-92149184D01*
X126645497Y-92155126D01*
X126627542Y-92212659D01*
X126608454Y-92269830D01*
X126607604Y-92276545D01*
X126605589Y-92283002D01*
X126599202Y-92342935D01*
X126591635Y-92402728D01*
X126592111Y-92409475D01*
X126591394Y-92416205D01*
X126596824Y-92476248D01*
X126601066Y-92536352D01*
X126602850Y-92542877D01*
X126603459Y-92549617D01*
X126620494Y-92607435D01*
X126636384Y-92665571D01*
X126639407Y-92671624D01*
X126641319Y-92678114D01*
X126651731Y-92697974D01*
X126648742Y-92715622D01*
X126648801Y-92717695D01*
X126632230Y-92819256D01*
X126509896Y-93054485D01*
X126492990Y-93079920D01*
X126479070Y-93113759D01*
X126477674Y-93116443D01*
X126466362Y-93144650D01*
X126450293Y-93183714D01*
X125826213Y-93190424D01*
X125725717Y-93201414D01*
X125597058Y-93241957D01*
X125478781Y-93306823D01*
X125426749Y-93350469D01*
X125406758Y-93362902D01*
X125375233Y-93392433D01*
X125341709Y-93419649D01*
X125326126Y-93438433D01*
X125308309Y-93455123D01*
X125283150Y-93490238D01*
X125255581Y-93523470D01*
X125243963Y-93544932D01*
X125229743Y-93564778D01*
X125211922Y-93604118D01*
X125191361Y-93642098D01*
X125184150Y-93665423D01*
X125174079Y-93687655D01*
X125164276Y-93729711D01*
X125151519Y-93770977D01*
X125148998Y-93795258D01*
X125143457Y-93819028D01*
X125142047Y-93862189D01*
X125141077Y-93871531D01*
X125140948Y-93895831D01*
X125139053Y-93953851D01*
X125140591Y-93963165D01*
X125123114Y-97261105D01*
X125122595Y-97327663D01*
X119660000Y-97327663D01*
X119660000Y-88660000D01*
X141340001Y-88660000D01*
X141340000Y-121340000D01*
G37*
%TD.AperFunction*%
%TD*%
M02*
